<svg id="visual" viewBox="0 0 2000 50" width="2000" height="50" xmlns="http://www.w3.org/2000/svg" xmlns:xlink="http://www.w3.org/1999/xlink" version="1.1"><rect x="0" y="0" width="2000" height="50" fill="#feffff"></rect><path d="M0 34L37 34.5C74 35 148 36 222 34.7C296 33.3 370 29.7 444.2 28.5C518.3 27.3 592.7 28.7 666.8 30C741 31.3 815 32.7 889 29.3C963 26 1037 18 1111 15C1185 12 1259 14 1333.2 14C1407.3 14 1481.7 12 1555.8 11.7C1630 11.3 1704 12.7 1778 14.5C1852 16.3 1926 18.7 1963 19.8L2000 21L2000 51L1963 51C1926 51 1852 51 1778 51C1704 51 1630 51 1555.8 51C1481.7 51 1407.3 51 1333.2 51C1259 51 1185 51 1111 51C1037 51 963 51 889 51C815 51 741 51 666.8 51C592.7 51 518.3 51 444.2 51C370 51 296 51 222 51C148 51 74 51 37 51L0 51Z" fill="#def2f1" stroke-linecap="round" stroke-linejoin="miter"></path></svg>