<svg id="visual" viewBox="0 0 2000 50" width="2000" height="50" xmlns="http://www.w3.org/2000/svg" xmlns:xlink="http://www.w3.org/1999/xlink" version="1.1"><rect x="0" y="0" width="2000" height="50" fill="none"></rect><path d="M0 44L17.5 43.7C35 43.3 70 42.7 105.2 42.5C140.3 42.3 175.7 42.7 210.8 42.7C246 42.7 281 42.3 316 42.5C351 42.7 386 43.3 421 43.7C456 44 491 44 526.2 43.3C561.3 42.7 596.7 41.3 631.8 41.3C667 41.3 702 42.7 737 43C772 43.3 807 42.7 842 42.2C877 41.7 912 41.3 947.2 40.8C982.3 40.3 1017.7 39.7 1052.8 39.5C1088 39.3 1123 39.7 1158 40.5C1193 41.3 1228 42.7 1263 43.3C1298 44 1333 44 1368.2 43.7C1403.3 43.3 1438.7 42.7 1473.8 42.2C1509 41.7 1544 41.3 1579 41.5C1614 41.7 1649 42.3 1684 42.8C1719 43.3 1754 43.7 1789.2 43.7C1824.3 43.7 1859.7 43.3 1894.8 42.8C1930 42.3 1965 41.7 1982.5 41.3L2000 41" fill="none" stroke-linecap="round" stroke-linejoin="miter" stroke="#feffff" stroke-width="40"></path></svg>