<svg id="visual" viewBox="0 0 2000 50" width="2000" height="50" xmlns="http://www.w3.org/2000/svg" xmlns:xlink="http://www.w3.org/1999/xlink" version="1.1"><rect x="0" y="0" width="2000" height="50" fill="#def2f1"></rect><path d="M0 25L47.7 25.2C95.3 25.3 190.7 25.7 285.8 26.8C381 28 476 30 571.2 31C666.3 32 761.7 32 857 28.8C952.3 25.7 1047.7 19.3 1143 17C1238.3 14.7 1333.7 16.3 1428.8 17.5C1524 18.7 1619 19.3 1714.2 21.3C1809.3 23.3 1904.7 26.7 1952.3 28.3L2000 30L2000 51L1952.3 51C1904.7 51 1809.3 51 1714.2 51C1619 51 1524 51 1428.8 51C1333.7 51 1238.3 51 1143 51C1047.7 51 952.3 51 857 51C761.7 51 666.3 51 571.2 51C476 51 381 51 285.8 51C190.7 51 95.3 51 47.7 51L0 51Z" fill="#2b7a78" stroke-linecap="round" stroke-linejoin="miter"></path></svg>