<svg id="visual" viewBox="0 0 2000 50" width="2000" height="50" xmlns="http://www.w3.org/2000/svg" xmlns:xlink="http://www.w3.org/1999/xlink" version="1.1"><rect x="0" y="0" width="2000" height="50" fill="none"></rect><path d="M0 32L37 32C74 32 148 32 222 31.2C296 30.3 370 28.7 444.2 27.2C518.3 25.7 592.7 24.3 666.8 22C741 19.7 815 16.3 889 15.5C963 14.7 1037 16.3 1111 20.2C1185 24 1259 30 1333.2 32.7C1407.3 35.3 1481.7 34.7 1555.8 33.7C1630 32.7 1704 31.3 1778 27.8C1852 24.3 1926 18.7 1963 15.8L2000 13L2000 0L1963 0C1926 0 1852 0 1778 0C1704 0 1630 0 1555.8 0C1481.7 0 1407.3 0 1333.2 0C1259 0 1185 0 1111 0C1037 0 963 0 889 0C815 0 741 0 666.8 0C592.7 0 518.3 0 444.2 0C370 0 296 0 222 0C148 0 74 0 37 0L0 0Z" fill="#def2f1" stroke-linecap="round" stroke-linejoin="miter"></path></svg>